<?xml version="1.0"?>
<svg xmlns="http://www.w3.org/2000/svg" xmlns:xlink="http://www.w3.org/1999/xlink" viewBox="0 0 1024 559"
	 style="enable-background:new 0 0 1024 559;" xml:space="preserve">
<style type="text/css">
	.st0{fill:#009edb;}
</style>
			<path id="path2797" class="st0" d="M19,441.7h3.5v29.2H19V441.7z"/>
			<path id="path2803" class="st0" d="M47.7,470.9L37.4,447h-0.1v23.9H34v-29.2h4.3l10.3,24.1h0.1v-24.1H52v29.2H47.7z"/>
			<path id="path2809" class="st0" d="M67.5,470.9v-26h-6.3v-3.2h16v3.2h-6.3v26H67.5z"/>
			<path id="path2815" class="st0" d="M86.4,470.9v-29.2h12.8v3.2h-9.3v9.3h8.9v3.2h-8.9v10.4h9.8v3.2H86.4z"/>
			<path id="path2829" class="st0" d="M113.6,454.7h2.7c3.7,0,5.1-2.6,5.1-5.1c0-3.3-2-4.8-5-4.8h-2.7V454.7z M110.1,441.7h7
				c2.9,0,4.5,0.8,5.8,2c1.4,1.4,2,3.4,2,5.6c0,3.1-1.4,6.1-5.4,7v0.1c1.7,0.3,2.4,1.2,3,2.8l3.9,11.7h-3.7l-3.1-9.9
				c-0.8-2.4-1.8-3.3-4.4-3.3h-1.6v13.2h-3.5V441.7z"/>
			<path id="path2835" class="st0" d="M154,469.7c-1.6,0.6-4.4,1.5-6.8,1.5c-8.7,0-12.3-7-12.3-14.9c0-9.1,5-14.8,12.1-14.8
				c2.4,0,4.6,0.3,6.4,1.3v3.7c-2.1-1.1-4.4-1.8-6.4-1.8c-4.5,0-8.6,3.8-8.6,10.9c0,7.5,2.8,12.5,8.8,12.5c1.1,0,2.5-0.3,3.4-0.8
				V458h-4.6v-3.2h7.9V469.7z"/>
			<path id="path2841" class="st0" d="M174.4,468.2c3.6,0,6.7-3.2,6.7-12.1c0-5.9-1.7-11.6-6.4-11.6c-3.6,0-6.7,3.2-6.7,12.2
				C168,462.5,169.7,468.2,174.4,468.2 M174.7,441.4c6.1,0,10,5.6,10,14.6c0,10.1-3.8,15.2-10.3,15.2c-6.1,0-10-5.6-10-14.6
				C164.4,446.5,168.2,441.4,174.7,441.4"/>
			<path id="path2847" class="st0" d="M191.7,441.7h3.8l6.4,23.8h0.1l6.7-23.8h3.5l-8.6,29.2H200L191.7,441.7z"/>
			<path id="path2853" class="st0" d="M221,441.7h12.8v3.2h-9.3v9.3h8.9v3.2h-8.9v10.4h9.8v3.2H221V441.7z"/>
			<path id="path2859" class="st0" d="M248.1,454.7h2.7c3.7,0,5.1-2.6,5.1-5.1c0-3.3-2-4.8-5-4.8h-2.8V454.7z M244.6,441.7h7
				c2.9,0,4.5,0.8,5.8,2c1.4,1.4,2,3.4,2,5.6c0,3.1-1.4,6.1-5.4,7v0.1c1.7,0.3,2.4,1.2,3,2.8l3.9,11.7h-3.7L254,461
				c-0.8-2.4-1.8-3.3-4.4-3.3h-1.6v13.2h-3.5V441.7z"/>
			<path id="path2865" class="st0" d="M270.5,441.7h4.3l10.3,24.1h0.1v-24.1h3.3v29.2h-4.3L273.9,447h-0.1v23.9h-3.3V441.7z"/>
			<path id="path2871" class="st0" d="M300,441.7h5.3l6.9,23.2h0.1l7-23.2h5.2v29.2h-3.3v-25.1h-0.1l-7.8,25.1h-2.5l-7.5-25.1h-0.1
				v25.1H300V441.7z"/>
			<path id="path2877" class="st0" d="M336.1,441.7h12.8v3.2h-9.3v9.3h8.9v3.2h-8.9v10.4h9.8v3.2h-13.3V441.7z"/>
			<path id="path2883" class="st0" d="M359.8,441.7h4.3l10.3,24.1h0.1v-24.1h3.3v29.2h-4.3L363.2,447h-0.1v23.9h-3.3V441.7z"/>
			<path id="path2889" class="st0" d="M393.3,444.9H387v-3.2h16v3.2h-6.3v26h-3.5V444.9z"/>
			<path id="path2895" class="st0" d="M423,460.1l-4.2-14.5h-0.1l-4.3,14.5H423z M420.7,441.7l9,29.2h-3.6l-2.2-7.6h-10.5l-2.2,7.6
				h-3.5l9.2-29.2H420.7z"/>
			<path id="path2901" class="st0" d="M438.5,441.7h3.5v26h9v3.2h-12.5V441.7z"/>
			<path id="path2907" class="st0" d="M478.4,455.7h1.9c4.2,0,5.7-2.1,5.7-5.3c0-4-2.1-5.6-5.7-5.6h-2V455.7z M474.9,441.7h6.6
				c2.7,0,4.5,0.8,5.9,2.3c1.4,1.4,2.2,3.5,2.2,6c0,5.7-3.1,8.7-8.9,8.7h-2.3v12.2h-3.5V441.7z"/>
			<path id="path2913" class="st0" d="M510,460.1l-4.2-14.5h-0.1l-4.3,14.5H510z M507.8,441.7l9,29.2h-3.6l-2.2-7.6h-10.5l-2.2,7.6
				h-3.5l9.2-29.2H507.8z"/>
			<path id="path2919" class="st0" d="M525.6,441.7h4.3l10.3,24.1h0.1v-24.1h3.3v29.2h-4.3L529,447h-0.1v23.9h-3.3V441.7z"/>
			<path id="path2925" class="st0" d="M555.1,441.7h12.8v3.2h-9.3v9.3h8.9v3.2h-8.9v10.4h9.8v3.2h-13.3V441.7z"/>
			<path id="path2931" class="st0" d="M578.8,441.7h3.5v26h9v3.2h-12.5V441.7z"/>
			<path id="path2937" class="st0" d="M624,468.2c3.6,0,6.7-3.2,6.7-12.1c0-5.9-1.7-11.6-6.4-11.6c-3.6,0-6.7,3.2-6.7,12.2
				C617.7,462.5,619.4,468.2,624,468.2 M624.4,441.4c6.1,0,10,5.6,10,14.6c0,10.1-3.8,15.2-10.3,15.2c-6.1,0-10-5.6-10-14.6
				C614.1,446.5,617.9,441.4,624.4,441.4"/>
			<path id="path2943" class="st0" d="M644.7,441.7h4.3l10.3,24.1h0.1v-24.1h3.3v29.2h-4.3L648.1,447H648v23.9h-3.3V441.7z"/>
			<path id="path2947" class="st0" d="M20.5,97.9h45.2v275.3H20.5V97.9z M43.2,15.9c15.1,0,27.4,12.7,27.4,29.1
				c0,16-12.4,29.1-27.4,29.1C27.8,74.1,15.8,61,15.8,45C15.8,28.6,27.8,15.9,43.2,15.9"/>
			<path id="path2953" class="st0" d="M153.7,295.2c0,31.6,15.4,45.1,35.1,45.1c19.7,0,35.1-14.4,35.1-45.5V179.5
				c0-31.6-15.4-45.5-35.1-45.5c-19.7,0-35.1,13.9-35.1,45.5V295.2z M269.2,294.8c0,26.7-7.7,47.2-23.6,62.4
				c-15.8,15.2-32.8,23-51,23c-16.2,0-29.7-4.1-40.9-12.7v58.7h-45.2V179.5c0-26.7,7.7-47.2,23.6-62.3
				c15.8-15.6,34.7-23.4,56.8-23.4c22,0,40.9,7.8,56.8,23.4c15.8,15.2,23.6,35.7,23.6,62.3V294.8z"/>
			<path id="path2959" class="st0" d="M467.3,294.8c0,26.7-7.7,47.2-23.6,62.4c-15.8,15.2-34.8,23-56.8,23c-22,0-40.9-7.8-56.8-23
				c-15.8-15.2-23.6-35.7-23.6-62.4V179.5c0-26.7,7.7-47.2,23.6-62.3c15.8-15.6,34.7-23.4,56.8-23.4c22,0,40.9,7.8,56.8,23.4
				c15.8,15.2,23.6,35.7,23.6,62.3v5.3h-45.2v-5.3c0-31.6-15.4-45.5-35.1-45.5c-19.7,0-35.1,13.9-35.1,45.5v115.7
				c0,31.6,15.4,45.1,35.1,45.1c19.7,0,35.1-14.4,35.1-45.5v-27.9h45.2V294.8z"/>
			<path id="path2965" class="st0" d="M664.7,294.8c0,26.7-7.7,47.2-23.6,62.4c-15.8,15.2-34.8,23-56.8,23c-22,0-40.9-7.8-56.8-23
				C511.7,342,504,321.5,504,294.8V179.5c0-26.7,7.7-47.2,23.6-62.3c15.8-15.6,34.7-23.4,56.8-23.4c22,0,40.9,7.8,56.8,23.4
				c15.8,15.2,23.6,35.7,23.6,62.3v5.3h-45.2v-5.3c0-31.6-15.4-45.5-35.1-45.5c-19.7,0-35.1,13.9-35.1,45.5v115.7
				c0,31.6,15.4,45.1,35.1,45.1c19.7,0,35.1-14.4,35.1-45.5v-27.9h45.2V294.8z"/>
			<path id="path2971" class="st0" d="M275.3,524.9c0,3.7-1.1,6.5-3.3,8.6c-2.2,2.1-4.8,3.2-7.9,3.2c-3.1,0-5.7-1.1-7.9-3.2
				c-2.2-2.1-3.3-4.9-3.3-8.6v-16c0-3.7,1.1-6.5,3.3-8.6c2.2-2.2,4.8-3.3,7.9-3.3c3,0,5.7,1.1,7.9,3.3c2.2,2.1,3.3,4.9,3.3,8.6v0.7
				h-6.3V509c0-4.4-2.1-6.3-4.9-6.3c-2.7,0-4.9,1.9-4.9,6.3v16c0,4.4,2.1,6.2,4.9,6.2c2.7,0,4.9-2,4.9-6.3v-3.9h6.3V524.9z"/>
			<path id="path2975" class="st0" d="M285.5,486.9h6.3v49h-6.3V486.9z"/>
			<path id="path2979" class="st0" d="M302.6,497.7h6.3v38.1h-6.3V497.7z M305.8,486.3c2.1,0,3.8,1.8,3.8,4c0,2.2-1.7,4-3.8,4
				c-2.1,0-3.8-1.8-3.8-4C302,488,303.6,486.3,305.8,486.3"/>
			<path id="path2985" class="st0" d="M319.9,535.8V509c0-3.7,1.1-6.5,3.3-8.6c2.2-2.2,4.8-3.3,7.9-3.3c3.2,0,5.8,1.4,8,4.2
				c2.2-2.8,4.9-4.2,8-4.2c3,0,5.7,1.1,7.9,3.3c2.2,2.1,3.3,4.9,3.3,8.6v26.9H352V509c0-4.4-2.1-6.3-4.9-6.3c-2.7,0-4.9,1.9-4.9,6.3
				v26.8H336V509c-0.1-4.4-2.2-6.3-4.9-6.3c-2.7,0-4.9,1.9-4.9,6.3v26.8H319.9z"/>
			<path id="path2991" class="st0" d="M374.5,526.1c0,2.7,2.1,5.2,4.9,5.2c2.6,0,4.9-2.4,4.9-5.2v-2.6c-0.2-2.7-2.2-4.9-4.9-4.9
				c-2.8,0-4.7,2.3-4.9,4.9V526.1z M374.4,508.9v0.8h-6.3v-0.8c0-3.7,1.1-6.5,3.3-8.6c2.2-2.1,4.9-3.2,7.9-3.2
				c2.8,0,5.4,1.1,7.7,3.2c2.2,2.1,3.4,5,3.4,8.6V526c0,3-1.2,5.6-3.4,7.7c-2.2,2.1-4.8,3.1-7.7,3.1c-3.1,0-5.7-1.1-7.9-3.5
				c-2.2-2.3-3.3-5.1-3.3-8.4c0-3.3,1.1-6.1,3.3-8.4c2.2-2.3,4.8-3.5,7.9-3.5c1.7,0,3.3,0.6,4.9,1.8v-5.9c0-4.4-2.2-6.3-4.9-6.3
				C376.6,502.7,374.5,504.6,374.4,508.9"/>
			<path id="path2997" class="st0" d="M416.1,536.8c-3.1-0.1-5.6-1.1-7.8-3.2c-2.2-2.1-3.2-5-3.2-8.6v-22.3h-7.8v-5h21.8v5h-7.8
				v22.3c0,4.3,2.1,6.3,4.7,6.3V536.8z"/>
			<path id="path3003" class="st0" d="M433.7,513.6h9.7V509c0-4.4-2.2-6.3-4.9-6.3c-2.6,0-4.8,1.9-4.8,6.3V513.6z M433.7,519.2v5.8
				c0,4.5,2.2,6.3,4.8,6.3c2.7,0,4.9-1.9,4.9-6.3h6.3c0,3.7-1.1,6.5-3.3,8.6c-2.2,2.1-4.9,3.2-7.9,3.2c-2.9,0-5.5-1-7.7-3.1
				c-2.2-2.1-3.4-5-3.4-8.8V509c0-3.7,1.1-6.5,3.3-8.6c2.2-2.2,4.8-3.3,7.9-3.3c3.1,0,5.7,1.1,7.9,3.3c2.2,2.1,3.3,4.9,3.3,8.6v10.2
				H433.7z"/>
			<path id="path3009" class="st0" d="M500.4,524.9c0,3.7-1.1,6.5-3.3,8.6c-2.2,2.1-4.8,3.2-7.9,3.2c-3.1,0-5.7-1.1-7.9-3.2
				c-2.2-2.1-3.3-4.9-3.3-8.6v-16c0-3.7,1.1-6.5,3.3-8.6c2.2-2.2,4.8-3.3,7.9-3.3c3,0,5.7,1.1,7.9,3.3c2.2,2.1,3.3,4.9,3.3,8.6v0.7
				h-6.3V509c0-4.4-2.1-6.3-4.9-6.3c-2.7,0-4.9,1.9-4.9,6.3v16c0,4.4,2.1,6.2,4.9,6.2c2.7,0,4.9-2,4.9-6.3v-3.9h6.3V524.9z"/>
			<path id="path3015" class="st0" d="M510.6,486.8h6.3v12.6c1.5-1.5,3.5-2.3,5.7-2.3c2.5,0,4.9,1,7.1,3c2.2,1.9,3.3,4.9,3.3,8.9
				v26.8h-6.3V509c0-4.4-2.1-6.3-4.9-6.3c-2.7,0-4.9,1.9-4.9,6.3v26.8h-6.3V486.8z"/>
			<path id="path3021" class="st0" d="M550.2,526.1c0,2.7,2.1,5.2,4.9,5.2c2.6,0,4.9-2.4,4.9-5.2v-2.6c-0.2-2.7-2.2-4.9-4.9-4.9
				c-2.8,0-4.7,2.3-4.9,4.9V526.1z M550.2,508.9v0.8h-6.3v-0.8c0-3.7,1.1-6.5,3.3-8.6c2.2-2.1,4.9-3.2,7.9-3.2
				c2.8,0,5.4,1.1,7.7,3.2c2.2,2.1,3.4,5,3.4,8.6V526c0,3-1.2,5.6-3.4,7.7c-2.2,2.1-4.8,3.1-7.7,3.1c-3.1,0-5.7-1.1-7.9-3.5
				c-2.2-2.3-3.3-5.1-3.3-8.4c0-3.3,1.1-6.1,3.3-8.4c2.2-2.3,4.8-3.5,7.9-3.5c1.7,0,3.3,0.6,4.9,1.8v-5.9c0-4.4-2.2-6.3-4.9-6.3
				C552.4,502.7,550.2,504.6,550.2,508.9"/>
			<path id="path3027" class="st0" d="M575.8,535.8V509c0-3.7,1.1-6.5,3.3-8.6c2.2-2.2,4.8-3.3,7.9-3.3c3,0,5.7,1.1,7.9,3.3
				c2.2,2.1,3.3,4.9,3.3,8.6v26.8h-6.3V509c0-4.4-2.1-6.3-4.9-6.3c-2.7,0-4.9,1.9-4.9,6.3v26.8H575.8z"/>
			<path id="path3033" class="st0" d="M614.8,510.1c0,2.9,2.3,5.2,4.9,5.2c2.8,0,4.9-2.3,4.9-5.2v-2.6c-0.2-2.7-2.2-4.9-4.9-4.9
				c-2.6,0-4.7,2.2-4.9,4.9V510.1z M625.3,530.3c3,0,5.6,2.3,5.6,7.1v5.8h-6.3v-4.7c0-1.4-1.1-2.6-2.5-2.6h-2.5
				c-3.1,0-5.7-1.1-7.9-3.4c-2.2-2.3-3.3-5.1-3.3-8.4c0-2.8,0.9-5.3,2.6-7.6c-1.7-2.2-2.6-4.7-2.6-7.5c0-2.7,0.7-5.1,2.3-7.2
				c1.5-2.1,3.5-3.5,5.8-4.3V493h6.3v4.6c2.3,0.7,4.2,2.2,5.7,4.3c1.5,2.1,2.2,4.5,2.2,7.1c0,3.2-1.1,6-3.3,8.4
				c-2.2,2.3-4.8,3.5-7.9,3.5c-1.1,0-2.2-0.2-3.3-0.5c-1,1-1.5,2.3-1.5,3.7c0,4.3,2.2,6.3,4.9,6.3H625.3z"/>
			<path id="path3039" class="st0" d="M647.2,513.6h9.7V509c0-4.4-2.2-6.3-4.9-6.3c-2.6,0-4.8,1.9-4.8,6.3V513.6z M647.2,519.2v5.8
				c0,4.5,2.2,6.3,4.8,6.3c2.7,0,4.9-1.9,4.9-6.3h6.3c0,3.7-1.1,6.5-3.3,8.6c-2.2,2.1-4.9,3.2-7.9,3.2c-2.9,0-5.5-1-7.7-3.1
				c-2.2-2.1-3.4-5-3.4-8.8V509c0-3.7,1.1-6.5,3.3-8.6c2.2-2.2,4.8-3.3,7.9-3.3c3,0,5.7,1.1,7.9,3.3c2.2,2.1,3.3,4.9,3.3,8.6v10.2
				H647.2z"/>
			<path id="path3045" class="st0" d="M950.1,325.5c-10.9-3.5-18.8-14.2-18.8-26.9c0-2.3,0.3-4.5,0.8-6.6l17.2,2.3
				c0,0,6.6,0.3,6.3,12.7C955.4,319,950.1,325.5,950.1,325.5"/>
			<path id="path3051" class="st0" d="M965.5,325.5c10.9-3.5,18.8-14.2,18.8-26.9c0-2.3-0.3-4.5-0.8-6.6l-17.2,2.3
				c0,0-6.6,0.3-6.3,12.7C960.2,319,965.5,325.5,965.5,325.5"/>
			<path id="path3057" class="st0" d="M957.8,278.4c2.2,0,4,1.9,4,4.3c0,1.8-1.2,3.2-2.6,4c-0.2,0.1-0.3,0.2-0.3,0.5
				c0,0.3,0.8,0.5,1.2,0.6l23.1,2.8c-3.2-11.6-13.4-20.1-25.4-20.1h0c-12,0-22.1,8.5-25.4,20.1l23.1-2.8c0.4-0.1,1.2-0.2,1.2-0.6
				c0-0.3-0.1-0.4-0.3-0.5c-1.4-0.8-2.6-2.2-2.6-4C953.8,280.4,955.6,278.4,957.8,278.4"/>
			<path id="path3063" class="st0" d="M968.3,345.4l1.6-1c0,0-7.4-10.7-24.1-10.7c-8.5,0-12.9,3.6-18.9,3.6c0,0-2.4,0.3-4.8-1.2
				c0,0,2.8,4.4,13.1,4.4c7.5,0,12.9-4.7,18.2-4.7C960.7,335.7,966.1,342.6,968.3,345.4"/>
			<path id="path3069" class="st0" d="M945.3,345.4l-1.6-1c0,0,7.4-10.7,24-10.7c8.5,0,12.9,3.6,18.9,3.6c0,0,2.5,0.3,4.8-1.2
				c0,0-2.8,4.4-13.1,4.4c-7.5,0-12.9-4.7-18.2-4.7C952.9,335.7,947.5,342.6,945.3,345.4"/>
			<path id="path3075" class="st0" d="M937.4,332.7c-0.3,0.8-3.5-0.2-5.6,0.5c-2.4,0.7-15.1,2.4-20.7-11.7c0,0,5.3,6,9.4,6.4
				c4.1,0.4,8.6,1.5,12.4,3.7l0.9,0.2c0,0-0.1-0.4-0.5-0.6c-0.5-0.3-4.4-1.6-6.4-8.3c-1-3.4-0.8-5.9-1.2-7.7c0,0,4.3,5.1,6.1,8.3
				C933.6,326.9,933.8,330.5,937.4,332.7"/>
			<path id="path3081" class="st0" d="M924.4,325.7c-0.3,0.3-1.1-0.2-1.4-0.4c-0.3-0.1-2.4-1.2-6-2.5c-3.6-1.4-10.2-7.3-9.6-17.5
				c0,0,0.9,3.8,3.7,6.4c2.7,2.5,3.7,2.8,5.4,4.9c1.7,2.1,5.4,6.8,5.6,6.8c0.2-0.1,0.2-0.3-0.1-0.6c-0.3-0.3-1.3-2.8-1.9-3.7
				c-0.6-0.9-2.5-7,0.2-14.4c0,0,3,5.5,2.8,11c-0.2,5.5-0.4,4.2,0.8,8.8C923.9,324.3,924.6,325.5,924.4,325.7"/>
			<path id="path3087" class="st0" d="M916.1,312.3c-0.2,0.2-0.9-1-1.5-2.1c-0.6-1.1-4.7-5.8-5.2-6.7c-0.5-0.9-5.1-6.8-1.7-15.6
				c0,0,0.3-0.1,0.3,2c0,2.1,1.8,6.7,3.3,8.7c1.5,2,2.8,5.2,3.1,8.5c0,0,0.2,0.6,0.4,0.7c0.2,0,0.2-0.6,0.2-0.6s-0.2-3.1-0.2-5.3
				c0-2.1,0.9-5.8,2.8-7.8c0,0,0.9-1,1.4-2.3c0,0,0.3-0.8,0.8-1.2c0,0,0.4,6-1.5,11.5c-1.9,5.6-2.6,6.5-2.2,9.5
				C916.2,311.5,916.2,312.2,916.1,312.3"/>
			<path id="path3093" class="st0" d="M912.9,295.9c-0.2,0-0.4-0.7-0.4-1.3c-0.1-0.6-0.7-3.9-1.1-4.6c-0.4-0.7-1.9-4.1-1.9-8
				c-0.1-3.9,1.6-9.2,5.3-13.4c0,0-0.2,1.2-1.1,4c-1,2.8-0.4,5.4-0.3,5.8c0.1,0.5,0.4,3.7,0.4,5.2c0,1.2-0.3,5.3-0.5,6.1
				c0,0-0.1,0.6,0.1,0.6c0.2,0,0.4-0.5,0.4-0.5s0.2-3.2,2.5-6.1c2.3-2.9,6.3-4.7,6.9-6c0,0-0.3,4.6-5,9.9c-4.2,4.8-3,2.3-4.4,6.2
				c0,0-0.6,1.4-0.6,1.8C913.2,296,912.9,295.9,912.9,295.9"/>
			<path id="path3099" class="st0" d="M915.5,280.6c0,0-0.1-0.6,0.6-2c0.7-1.4,0-3.9,0.9-7.5c1-3.6,2.8-9.9,9.7-13.6
				c0,0-0.7,0.7-1,1.2c-0.3,0.5-2.2,4.3-2.7,6.9c-0.5,2.6-2.9,7-3.8,7.9c-0.9,1-0.5,1.1-0.5,1.1s0.4-0.1,0.9-0.8
				c0.4-0.7,2.7-3.4,5.2-4.1c2.5-0.6,6.4-1.9,6.7-2.1c0,0-4.3,4.7-8.3,7c-4,2.4-4.4,1.7-6.7,4.9
				C916.5,279.4,915.7,280.6,915.5,280.6"/>
			<path id="path3105" class="st0" d="M924.9,266.7c0,0,0-0.4,0.7-1.1c0.7-0.7,1.5-2.9,2.7-4.9c1.3-2,4.1-7.3,11.6-8.6
				c0,0-2.2,1.8-2.6,2.3c-0.3,0.6-2.5,3.6-3.5,4.7c-1,1.1-3.8,3.2-4.7,3.7c0,0-0.5,0.4-0.4,0.6c0.1,0.1,0.6-0.2,0.6-0.2
				s2.6-2.1,5.7-2.2c3.1-0.1,6.4,0.1,6.9,0.1c0,0-2.9,2.1-9.9,3.5c-7,1.3-5.7,1.4-6.8,2.1C925.4,266.7,925.2,266.9,924.9,266.7"/>
			<path id="path3111" class="st0" d="M937.4,258.1c0,0,0.2-0.4,1.3-0.8c1.1-0.4,1-1.5,4.4-3.4c3.4-1.9,7-2.8,10.6-1.2
				c0,0-1.5,0.2-1.8,0.3c-0.3,0.1-2.8,0.8-3.6,1.2c-0.7,0.4-4.5,2.2-6,2.5c-1.5,0.3-0.8,0.4-0.8,0.4s0.3,0.2,0.6,0.2
				c0.3,0,3.7-0.4,5.9,0.5c2.2,0.8,2.1,1.1,3,1.4c0.9,0.3,1.9,0.5,2,0.9c0,0-2.2,0.2-3.5,0.2c-1.3,0-4.8-0.4-6.4-1.2
				c-1.7-0.8-3.6-1.2-4.2-1C938.4,258.2,937.6,258.2,937.4,258.1"/>
			<path id="path3117" class="st0" d="M951.3,256.3c0,0,0.2-0.2,1.1-0.4c1-0.2,1.2-0.8,3.5-1.3c2.3-0.5,5.9-1,9.1,1.4
				c0,0-2-0.1-2.5-0.1c-0.5,0-4.3,0.7-5.1,0.7c-0.9,0-2.6-0.4-2.9-0.1c-0.2,0.3,1.6,0.7,1.9,0.8c0.3,0.1,1.6,0.2,3.3,1.9
				c1.7,1.7,2.8,2.7,3,2.8c0,0-4.9-1.2-6.1-1.9c-1.2-0.7-3.3-3-3.7-3.1C952.7,256.8,951.3,256.3,951.3,256.3"/>
			<path id="path3123" class="st0" d="M962.6,258.4c0,0,3.1-0.1,5.3,1.4c2.2,1.5,4,3.5,4.3,4.7c0,0-1.3-1.1-2.1-1.4
				c-0.8-0.3-3.2-1.6-3.7-2C965.9,260.8,963.1,258.9,962.6,258.4"/>
			<path id="path3129" class="st0" d="M977,333.3c0,0,0.4-0.5,1.9-1.8c1.5-1.3,1.9-3.3,3.4-6.4c1.6-3.1,3-5.2,6.3-8.3
				c0,0-0.6,2.3-0.6,3.1c0,0.7-0.6,4.8-2.4,7.1c-1.9,2.3-2,2.8-4.1,4.2c0,0-0.8,0.6-0.8,0.8c0,0.2,1.5-0.1,1.5-0.1s1.6-0.6,2-0.9
				c0.5-0.3,2.7-1.5,3.6-1.9c0.9-0.4,1.6-0.7,3.6-1.4c2-0.6,9-2.6,11.8-7.3c0,0-0.8,2.8-1.8,4.1c-1,1.3-6.8,9.5-14.9,9.3
				c0,0-3.2-0.2-4.8-0.6c-1.7-0.3-2.2-0.3-2.5-0.3C978.8,333.1,977.3,333.5,977,333.3"/>
			<path id="path3143" class="st0" d="M995.1,304.2c0,0-3,5-3.7,12.3c-0.7,7.3,0.5,5.1-0.7,8.3c0,0-0.4,0.8-0.2,0.9
				c0.1,0,0.7-0.3,2.9-1.7c2.1-1.4,4.2-1,8.8-5.7c4.6-4.7,5.5-14,5.6-14.7c0,0-0.7,0.7-1,2c-0.3,1.2-1.1,2.2-1.2,2.4
				c-0.1,0.1-5.1,6-5.7,6.5c-0.6,0.5-3.5,4.3-4.1,5.4c-0.6,1.1-2.5,3.1-2.8,2.9c0,0,0.1-0.4,0.2-0.8c0.1-0.4,1.5-2.3,2.1-4.6
				c0.6-2.3,0.7-3.7,0.8-5.1C996,310.7,995.1,305.3,995.1,304.2"/>
			<path id="path3149" class="st0" d="M999.2,311.2c0,0-0.3-0.8,0-1.3c0.2-0.3,0.3-2.8-0.6-4.8c-0.9-2-2.8-7.6-2.6-11.4
				c0.1-3.7,0.5-4.2,0.5-4.2s1,3.1,1.3,3.6c0.3,0.5,3.2,6,3,9c-0.2,3-0.4,3.9-0.2,4c0.1,0.1,0.5-0.3,0.5-0.7
				c0.1-0.4,0.5-2.4,1.5-4.9c0.9-2.4,4.7-7.8,5.5-11.4c0,0,1.2,6.2-2,12.1c-3.3,5.8-3.6,4.5-5,7.1
				C999.6,310.9,999.4,311.2,999.2,311.2"/>
			<path id="path3163" class="st0" d="M1002.2,294.7c-0.3-0.1-0.1-2.5-0.7-3.2c-0.6-0.8-5.6-7.1-6.7-13.4c0,0,3.2,3.4,3.7,3.8
				c0.5,0.4,2.7,2.6,3.3,4.6c0.6,2,0.5,3.6,0.7,3.7c0.2,0.1,0.2-2.2,0.2-2.2s0.1-4.4,0.4-6.4c0.3-2.1,1.2-5.6,0.8-7.3
				c0,0,1.9,3.2,1.8,7.8c-0.1,4.6-1.9,8.2-2.2,8.7c-0.2,0.5-0.9,2.8-0.9,3.2C1002.7,294.4,1002.2,294.7,1002.2,294.7"/>
			<path id="path3169" class="st0" d="M996.2,262.2c0,0,6.6,4.1,5.6,18.1c0,0,0,0.6-0.4-0.1c-0.4-0.7-1.8-2.6-2.4-3
				c-0.6-0.4-6.5-4.2-9-10c0,0,0.4-0.1,1,0.5c0.6,0.6,2.4,1.5,2.7,1.7c0.3,0.1,2.3,0.7,3.8,2.5c1.5,1.8,2.1,3.1,2.5,4.1
				c0,0,0.4,0.4,0.2-0.7c-0.3-1-0.3-1.7-1.1-3c-0.8-1.3-1.5-3.6-1.6-5.2C997.3,265.5,996.9,263.1,996.2,262.2"/>
			<path id="path3175" class="st0" d="M995.1,267.1c0,0,0.1-0.9-0.5-2.2c-0.6-1.3-0.2-2.7-2.2-6.2c-1.1-1.9-5-3.4-5-3.4
				s1.1,1.7,1.9,2.6c0.7,0.9,1,1.6,1.2,2.1c0.2,0.5,1.6,1.8,2.1,2.6c0.1,0.2,0.3,0.6,0.3,0.8c0,0.3-0.5-0.1-0.7-0.3
				c-0.2-0.2-2.6-2.1-4-2.4c-1.5-0.3-4.4-0.6-5.2-1c0,0,3.4,3.3,7.1,4.3C993.8,264.9,995.1,267.1,995.1,267.1"/>
			<path id="path3181" class="st0" d="M987.3,258.6c0,0-3.4-4.9-9.5-4.8c0,0,0.3,0.4,1,0.5c0.7,0.2,1.9,1.4,2.6,1.9
				C982,256.5,983.3,257.6,987.3,258.6"/>
			<path id="path3187" class="st0" d="M931.1,352.9c-2.7,0.3-3.3,0.9-3.3,5.1v10.3c0,3.2,0,10.6-9.2,10.6c-8.8,0-8.8-7.7-8.8-10.1
				v-12.4c0-2.9-0.5-3.4-3.2-3.6v-0.7h10.1v0.7c-2.8,0.3-3.2,0.8-3.2,3.6v12.7c0,2.5,0,8.1,6.2,8.1c2.8,0,4.8-1.3,5.8-3.1
				c0.5-0.9,0.8-2.2,0.8-5.4V358c0-4.2-0.9-4.9-3.3-5.1v-0.7h8.2V352.9z"/>
			<path id="path3193" class="st0" d="M960,352.9c-2.2,0.3-3.4,0.4-3.4,5.1v20.9H956l-15.6-21.7h-0.1v15.5c0,4.1,0.7,4.9,3.4,5.1
				v0.7h-8.4v-0.7c2.7-0.2,3.4-0.8,3.4-5.1v-17.5c-1.5-2-2-2.2-3.4-2.2v-0.7h6.1l13.6,19.1h0.1V358c0-4.6-1-4.9-3.4-5.1v-0.7h8.3
				V352.9z"/>
			<path id="path3199" class="st0" d="M983.6,378.4h-19.2v-0.7c2.3-0.2,3.1-0.5,3.1-3.6v-17.6c0-3.1-0.9-3.4-3.1-3.6v-0.7h18.9
				l0.1,5.7h-0.9c-0.5-3.5-1.5-4.2-5.4-4.2h-4.8c-0.8,0-1.2,0-1.2,1.3v8.8h5.5c3.2,0,3.5-1,3.9-3.8h0.8v9.2h-0.8
				c-0.4-3.2-1-3.7-3.9-3.8l-5.5-0.1v9.8c0,1.6,0,1.7,5.3,1.7c4.4,0,6.2-1.2,7.8-5.2h1L983.6,378.4z"/>
			<path id="path3205" class="st0" d="M996.1,365.3c0.7,0.1,1.4,0.1,2.1,0.1c1.3,0,6.1,0,6.1-6c0-5.7-5.2-5.8-6.8-5.8
				c-1,0-1.4,0-1.4,1.3V365.3z M989.5,352.2h9.4c4.9,0,9.3,2.1,9.3,7.1c0,3.1-1.6,4.7-2.2,5.4c-1.5,1.6-3.8,2.3-7.5,2.3
				c-0.9,0-1.5,0-2.4-0.1v7.2c0,2.9,0.6,3.5,3.3,3.6v0.7h-10v-0.7c3-0.3,3-1.2,3-4v-17.2c0-2.8-0.4-3.3-3-3.6V352.2z"/>
			<path id="path3211" class="st0" d="M824,276.5c8.3,0.2,14.9,7.5,14.9,16.3c0,9-6.9,16.3-15.4,16.3c-8.5,0-15.4-7.3-15.4-16.3
				c0-8.9,6.7-16.1,15-16.3h0.4 M823.6,308.5c8.2,0,14.8-7,14.8-15.7c0-8.6-6.5-15.6-14.5-15.7h-0.3c-0.1,0-0.2,0-0.3,0
				c-8,0.2-14.5,7.2-14.5,15.7C808.8,301.5,815.4,308.5,823.6,308.5"/>
			<path id="path3217" class="st0" d="M810.1,256.1c-13.8,5.7-23.6,20-23.6,36.7c0,21.8,16.6,39.4,37.1,39.4
				c20.5,0,37.1-17.7,37.1-39.4c0-17.9-11.2-33-26.5-37.8l-0.9,0.4c15.5,4.5,26.9,19.6,26.9,37.4c0,21.4-16.4,38.8-36.5,38.8
				c-20.2,0-36.5-17.4-36.5-38.8c0-16.8,10-31.1,24-36.5L810.1,256.1z"/>
			<path id="path3223" class="st0" d="M817.6,262.3c1.2-0.3,2.4-0.4,3.6-0.6l-0.1-0.6c-0.8,0.1-1.6,0.2-2.3,0.3L817.6,262.3z"/>
			<path id="path3229" class="st0" d="M833.2,263.4c11.4,4.2,19.7,15.8,19.7,29.4c0,17.2-13.1,31.1-29.3,31.1
				c-16.2,0-29.3-13.9-29.3-31.1c0-13.8,8.4-25.4,20.1-29.5l0.3-0.7c-12.2,4-21,16.1-21,30.3c0,17.5,13.4,31.7,29.9,31.7
				c16.5,0,29.9-14.2,29.9-31.7c0-14.2-8.7-26.2-20.7-30.2L833.2,263.4z"/>
			<path id="path3235" class="st0" d="M830.3,261.9c-1.1-0.3-2.1-0.4-3.2-0.6l-0.2,0.6c1.2,0.1,2.5,0.4,3.7,0.7L830.3,261.9z"/>
			<path id="path3241" class="st0" d="M825.3,269.5c11.3,0.9,20.3,11,20.3,23.3c0,12.9-9.9,23.4-22,23.4c-12.2,0-22-10.5-22-23.4
				c0-12.7,9.5-23,21.4-23.4l-0.2-0.6c-12.2,0.5-21.8,11.1-21.8,24c0,13.3,10.1,24,22.6,24c12.5,0,22.6-10.8,22.6-24
				c0-12.6-9.2-23-20.7-23.9L825.3,269.5z"/>
			<path id="path3247" class="st0" d="M823.6,301.6c4.3,0,7.8-3.7,7.8-8.3c0-4.6-3.5-8.3-7.8-8.3c-4.3,0-7.8,3.7-7.8,8.3
				C815.8,297.9,819.3,301.6,823.6,301.6 M829.7,299.4l20.1,21.4l-0.4,0.4l-20.1-21.4v0c-1.4,1.4-3.3,2.3-5.4,2.4h0v30.2h-0.6v-30.2
				h0c-2.1-0.1-4-1-5.4-2.4l0,0l-20.1,21.4l-0.4-0.4l20.1-21.4l0,0c-1.4-1.5-2.2-3.6-2.3-5.8l0,0h-28.4V293h28.4h0
				c0.1-2.2,0.9-4.2,2.2-5.8h0l-20.1-21.4l0.4-0.4l20.1,21.4v0c1.4-1.4,3.3-2.3,5.4-2.4h0V277l0.2-0.1l0.4-0.2v7.6v0
				c2.1,0.1,4,1,5.4,2.4l20.1-21.4l0.4,0.4l-20.1,21.4v0c1.4,1.5,2.2,3.6,2.3,5.8h0h28.4v0.6H832l0,0
				C831.9,295.8,831.1,297.8,829.7,299.4L829.7,299.4z"/>
			<path id="path3253" class="st0" d="M823.5,226.9l4,18.2l7.4-4.9l-4.5,8.3l19.1,4.6l-19.1,4.6l4.5,8.2l-7.4-4.9l-4,18.1l-4-18.1
				l-7.4,4.9l4.5-8.2l-19.1-4.6l19.1-4.6l-4.5-8.3l7.4,4.9L823.5,226.9z M823.5,228.5l-3.6,16.8l3.6,7.6V228.5z M848.4,253.1l-18-4
				l-6.6,4H848.4z M799,253.1l17.8,4.2l6.8-4.2H799z M823.5,277.6l3.5-16.7l-3.5-7.9V277.6z M833.9,241.4l-6.3,4.1l-4.1,7.6
				L833.9,241.4z M812.9,265l6.5-4.4l4-7.5L812.9,265z M813,241.1l4,7.4l6.6,4.5L813,241.1z M834.2,265.1l-4.1-7.3l-6.3-4.7
				L834.2,265.1z"/>
			<path id="path3259" class="st0" d="M799.4,295l-0.4,1l-0.7,0l-0.5,1.3l-0.6,1.3l0,1.9l-2.6,0l-0.4,0.3l-1.2,0l-0.7-0.8l-0.9,0.1
				l-0.8,0.3l-1-0.1l-0.3,0.5l-0.3,1.3l-0.1,1.6l0.6,0.6l-0.1,1.6l1.2,1.2l0.1-1.9l1.2,0.7l0.1-0.9l0.7,0.6l0,0.8l0.8,0.1l1.1,1
				l0.5,1.1l1.4,0.5l0.2,0.7l2.5,1.9l3.4,0.5l0.9,1.2l1.7-0.4l1.1-0.2l1.7-0.1l0.3-1l-1.1-2.5l-1.7-2.4l-0.1-1.8l0-0.9l-0.9-1l0-1.2
				l0.5-0.8l-0.2-1.1l-0.8,0.2l0.1-2l-1.2-2.2l0.1-0.7l-0.5-0.8l0.4-0.7l0.8-0.1l0.3-1.2l1-0.3l0-1.1l-0.3-0.5l0.4-1l0.9-0.5
				l0.7,0.1l0.1,1.7l0.3,0.2l-0.4,0.4l0.2,0.6l0,0.9l-0.4,0.6l0.5,2l0.5-1l0.4,0.2l0.6,0.6l1.9,0.2l0,0.7l0.7-0.2l0.3,0.8l0.6,0.4
				l0.5,0.1l-0.1,0.8l0.5-0.8l0.1,1.3l0.7,0.6l0-1.1l0.5-0.2l0-1l0.9-0.7l0-0.8l1,0.3l0.3-1.4l0.8-1.2l0.4-1l0.7,0.3l0,0.8l-0.4,0.4
				l0.5,0.5l-0.7,0.3l-0.6,0.3l0,0.5l-0.2,0.4l-0.5,0.4l-0.2,0.9l-0.6,0.6c0,0,0.8,0.5,1,0.4c0.2-0.1,1.7-0.1,1.7-0.1l0.2-0.7
				l0.6-0.3l0.9-0.1l0.3-1.6l0.7-1.1l-0.9-1l-0.3,0.1l-0.2,0.4l0.1-1.4l-0.6-0.5l0-0.9l-0.7-0.5l-0.1,0.7l-0.3,0.3l-0.3-0.3l0.5-1
				l-0.1-0.4l-0.5,0.1l-0.7,0.3l0-0.6l0.3,0.1l0.6-0.3l-0.2-1l1.6-0.1l0.8-0.8l0-1.1l0.5-0.1l0-0.4l-0.4-0.1l0-0.6l0.5-0.4l1-0.4
				l0-0.4l-2,0.4l-0.5-0.1l0.1-0.9l-0.3,0.1l-0.6,0.8l-0.2,0.8l-1.1,0.7l-1-0.1l-0.3-0.8l-0.6,0l-0.3,0.7l-1,0l-1.5-1l-1.6-0.4
				l-1,0.5l-1.7,0.4l-1.3,0.8l-0.3,0.3l0.5,0.2l0.9-0.3l0.9-0.3l0.4,0.2l-0.2,0.4l-0.8,0l-1.9,0.4l-1,0.1l-0.5,0.9l-0.2,0.6
				l-0.5,0.6l0.2,1.1l-0.3,0.8l-0.4,0.6l-0.1,0.6l-0.4,0.3l0,0.8l-0.6-0.3l0,1.5l-0.4,0.9l0.2,0.7l-0.4,0.4l-1-0.1l-0.9-0.5
				L799.4,295z"/>
			<path id="path3265" class="st0" d="M805.8,293.3l-0.5-0.3l-0.1,1l0.3,0.8l-0.6,0.4l0,1.2l0.4,1l0.4,1.6l0.1-1.5l0.5-1l-0.7,0.3
				l0-0.9l0.4-1l-0.4-0.9L805.8,293.3z"/>
			<path id="path3271" class="st0" d="M806.2,295.1l-0.2,0.6l0.5,0.4l-0.2-0.5L806.2,295.1z"/>
			<path id="path3277" class="st0" d="M792.2,309.2l0.1,1l0.5,0.4l0,0.5l0.5,0.1l0-0.8l-0.4-0.9L792.2,309.2z"/>
			<path id="path3283" class="st0" d="M799.8,320.9l0.7,0.1l0,0.4l0.5,0.5l-0.6,0.7l-0.7-1.2L799.8,320.9z"/>
			<path id="path3289" class="st0" d="M839.5,310.2l0.2-0.4l0.4,0.1l0.8,1l-0.1,0.7l0.3,0.2l0,2l-0.5,0.4l-0.8,0.5l-0.6,0.1l0.1-1.4
				l-0.3-0.4l0-1l0.6-0.5l0-0.9l-0.4-0.3L839.5,310.2z"/>
			<path id="path3295" class="st0" d="M831.1,306l-2-0.1l1.5,0.7l1.9,1.1l2.6-0.5l0.3-1.2l0.6-0.4l0.4,1.3l0,1.6l0.2,1.3l-0.7,1.1
				l0,0.9l1.1,0.7l0.5,1l-0.1,1.2l-0.8,0.8l-0.2,2l-0.4,0.6l-0.3,1.4l-1.6,1.6l-1.1,0.5l-0.6,0.7l-1,0l-0.7,0.9l-1.3-0.6l-1.1-0.9
				l-0.2-1l-0.8,0l-1-1.8l0.4-1l-0.7-1.5l-1.4-0.7l-1.3-1.4l-2.5-0.3l-0.5-0.6l-2.2,0l-1.1-0.7l0.1-0.7l-1.2-1.5l0.4-0.7l0.4-1.5
				l1.6-0.7l0.6-1l0.7-0.1l0.5-0.3l1.1,0.2l0.5-0.4l1.9-0.2l0.5,0.4l2.3-0.6l0.4-0.3l0.8,0.3l0.8-0.7l0.8-0.3l0.7-0.6l-0.3-0.3l-1,0
				l-0.9,0.8l-0.7,0l-0.2-0.9l1.4-1l1.2-0.1l0.2-0.7l-1.2-0.4l-0.6-0.2l-0.4,0.4l0.3,0.3l-0.3,0.2l-0.7-0.3l0,0.7l-0.1,0.7l0.1,0.4
				l-0.2,0.3l0.3,0.4l-0.5,0.3l0-0.3l0.1-0.4l-0.6-0.4l-0.7-0.5c0,0-1-0.2-1,0c0,0.2,0.2,0.7,0.2,0.7l0.8,0.6l0.5,0.2l0.1,0.4
				l-0.3-0.2l-0.2,0.3l-0.2,0.5l-0.2-0.3l-0.1-0.6l-0.6-0.3l-0.8,0l-1-0.1l0,1.2l-0.4,0.4l-1,0.2l-0.3,0.1l-0.4-0.4l-0.3-0.3
				l0.2-0.7l0.2-0.3l0.5-0.2l0.8,0l0.3-0.5l-0.7-0.5l0.6-0.6l0.9-0.2l0.2-1l0.4-0.2l0,0.3l-0.2,0.1l0.1,0.2l1.2-0.2l0.6-0.2l0.1-0.9
				l1.2-0.5l-0.1-0.5l-0.7-0.1l-0.3-0.9l-0.4,0l-0.4,0.4l0.1,0.9l-0.6,1.1l-0.5,0l0-0.6L822,301l0-0.8l0.1-0.8l0.9-0.7l0.4-1.8
				l0.6-0.4l1,0l0.4-0.3l-0.2-0.8l0.1-0.7l0.3-0.3l0.1-0.6l-0.5-0.1l0-0.4l0.3-0.4l-0.3-0.9l-1.2-0.2l0.1-0.4l0.4-0.3l0.7-0.2
				l-0.4-0.9v-1l-0.6-0.1l-0.5-0.4l0.3-0.4l0.2-1L823,287l-0.4,0.2l-1.3-1l-0.4-0.7l0.4-0.5l0.9-0.2l0.3-0.5l-0.7-0.4l0.2-0.4
				l0.5,0.3l1.3,0.2l0.5-0.7l-0.1-0.7l1.4-0.2c0,0,0.1,0.5,0.2,0.4c0.1-0.1-0.3,0.6-0.3,0.6l-0.7,0.8l0.4,0.4l0.1,0.3l0.5,0.2
				l0.1,0.4l0.8-0.2l0.5-0.1c0,0-0.1-1.5,0.1-1.5c0.2,0,1.2-0.2,1.2-0.2l1,0.1l0.4,0.7l1.3,0.1l-0.2-1.2l0.9-0.3l1.2,0.2l-1.1,0.7
				l-0.7,1.3l0.5,0.4l0.1,0.5l0.4-1.2l-0.1-0.4l0.5-0.2l0.2,1l0.5-0.8l-0.3-0.4l0.5-0.3l0.6,0.5l0.7,0.2l0.9-0.1l0.7,1.1l0,0.3
				l0.8,0.3l0.1,0.9l0.5-0.3l0.7-0.6l0.6,0.2l0.8,1.1l-0.2,1.7l1-0.1l0.1-0.9l0.4-0.1l0.2-0.4l0.3-0.2l0.2-0.5l0.2,1.3l-0.4,0.3
				l-0.2,0.4l-0.2,0.6l-0.7,0.2l-1.3,0l-0.3,1l0.1,0.7l-0.7,0.8l-0.1,0.5l-0.8,0.7l0.1,0.5l0.5,0.2l0.2,0.8l0.3,0.1l0.2,0.5l0.1,1.2
				l0.4,0.1l0.1,0.5l0.5,0.2l0.3,0.8l-0.3,0.3l-0.7,0l-1.4,0.7l-0.4-0.3l-0.7-0.1l0,0.6l-1.1,0l-1,1.3l-0.7,1.3l-0.7-0.1l-0.3,0.7
				l-1.1,0.3l0,0.5l0.5,0.3l0.7,0l0.6-1.2l1.4-0.4l0.4,1.4l-0.8,1.3l0,1.1l-0.4,1.1l-0.2,0.3l-0.2-0.2l-0.8,0.3l-0.9-0.5l-0.3,0.3
				L831.1,306z"/>
			<path id="path3301" class="st0" d="M836.9,303.7l-0.3,0.4l0,0.7l0.3,0.3l0.3-0.2l-0.1-0.8l0.1-0.2L836.9,303.7z"/>
			<path id="path3307" class="st0" d="M840.6,296.3l0.3-0.6l0.8,0l0.1,0.3c0,0,0.6-0.1,0.5,0c0,0.1-0.1,0.4-0.1,0.4l-0.3,0.5
				l-0.3-0.1L840.6,296.3z"/>
			<path id="path3313" class="st0" d="M842.2,291.1l0-2.2l0.7-0.1l0.2-1.3l-0.3-1l0.7-0.8l-0.4-1.1l-0.8-0.5l-1.2,0.1L841,283
				l-1-0.6l0.1-0.6l0.5,0.1l-0.7-0.5l0.7-0.2l0.1-1l-1-0.5l-0.2-1.2l-1.1,0.2l-0.1-0.3l0.2-0.1l0.1-0.8l-0.8-0.6l-0.1-1.1l-1.2-0.9
				l-0.2-1.1l-0.4-0.4l-0.4-0.1l-0.5-0.9l0.3-0.5l-0.3-0.5l-1-0.3l0.5-0.8l-0.9-0.9l0-0.3l1.5,0.2l0.2,0.4l0,1.2l0.7,0.5l1,0.3
				l1.1,1.5l-0.6,0l-0.4,0l0.7,1.2l0.2,0.6l0.6,0.2l0.1,0.6l-0.1,0.7l0.5,0.1l0.6,0.9l0.6,0.6l0.5,1.4l0.3-0.2l1.2,3.3l0.7-0.5
				c0,0-0.4-0.5-0.4-0.7c0-0.2-0.5-1-0.3-1c0.1,0,0.4-0.1,0.4-0.1s0.5,0.6,0.5,0.7c0,0.1,0.3,0.8,0.3,0.8l0.1,1.7l0.3,0.9l-0.1,1.5
				l-0.4,0.5l0.2,0.5l-0.1,2l-0.5,0.4l-0.7,1.6L842.2,291.1z"/>
			<path id="path3319" class="st0" d="M840.9,276.7l0.5,0.1l0.3,0.6l0,0.8c0,0-0.3,0-0.3-0.1c-0.1-0.1-0.2-0.5-0.2-0.5
				s-0.4-0.1-0.3-0.3C840.9,277.1,840.9,276.7,840.9,276.7"/>
			<path id="path3325" class="st0" d="M842.1,278.2l0.3,0.2l0.2,0.3l-0.2,1l-0.3-0.1l0-0.6l-0.3-0.3L842.1,278.2z"/>
			<path id="path3331" class="st0" d="M826.8,282.1l0.7,0.1l0.3-0.1l0.4,0.1l0.2,0.6l1.2-1.1l1.1-0.4c0,0,0.9,0.7,1,0.7
				c0.1,0,0.7,0,0.7,0l1.7,0l-1.3-1.1l-0.8,0l-0.2,0.2l0-0.4l-1.2-0.3l-0.7,0.2l-0.2,0.5l-0.7,0.5l-0.9-0.1l-0.2-0.3l-0.3,0
				l-0.1,0.4l-0.4-0.1l0,0.4l-0.4,0.1L826.8,282.1z"/>
			<path id="path3337" class="st0" d="M834.8,282.9l0.3-0.3l0.7,0l0.2,0.3l-0.4,0.4l-0.4,0l-0.1-0.2L834.8,282.9z"/>
			<path id="path3343" class="st0" d="M836.3,283.1l0.2-0.7l0.4-0.2l0-0.7l0.3-0.3l0-0.5l-0.3-0.1l0.7-0.4l-0.3-0.4l0.7-0.4l0.3,0.1
				l0.1,1.2l-0.7,0l0.1,0.6l-0.3,0.1l0,0.8l0.4-0.4l0.5,0l0.6,0.2l-0.2,0.7l-1.3-0.2l0,0.4l-0.4,0.3L836.3,283.1z"/>
			<path id="path3349" class="st0" d="M823.2,282.3l0,0.6l0.4,0l0.1-0.4l0.4,0l-0.1-0.3L823.2,282.3z"/>
			<path id="path3355" class="st0" d="M822.4,281.5l0.4,0.1l0.2-0.1L823,282l-0.6-0.1L822.4,281.5z"/>
			<path id="path3361" class="st0" d="M817.6,264.1l0.5-0.6l0.8,0l0.5,0.8l0,0.6l-0.5-0.1l-0.1-0.2l-0.8-0.1l-0.4,0L817.6,264.1z"/>
			<path id="path3367" class="st0" d="M826.9,262.3L826.9,262.3l0.1,0.4l0.5,0.1l0.2,0.6l-0.4,0.1l-0.5-0.3L826.9,262.3z"/>
			<path id="path3373" class="st0" d="M828.3,262.2l-0.4,1.2l0.4,0l0.5,0l0.4,0.5l0.1-0.7l-0.6-0.7L828.3,262.2z"/>
			<path id="path3379" class="st0" d="M827.7,263.8l0.2,0.1l0.3,0.5l-0.1,0.4l-0.3,0.2l-0.3-0.2l-0.2-0.2l0.1-0.3l0.1-0.1
				L827.7,263.8z"/>
			<path id="path3385" class="st0" d="M829.2,265.7c0,0.1-0.1,0.8-0.1,0.8l1.1,1.8l0.8,0.1l0.2,0.2h0.7l-0.6-0.9l-0.6-0.2l-0.6-1.1
				l-0.8-0.4l0-0.3L829.2,265.7z"/>
			<path id="path3391" class="st0" d="M832.4,269.3l0,0.6l0.4,0.3l1.2,0l-0.3-0.5l-0.6-0.1l-0.1-0.3L832.4,269.3z"/>
			<path id="path3397" class="st0" d="M839.1,262.9l-0.9-0.1l-0.4-0.5l-0.9,0.3l-1.1,0.2l-0.2,0.5l-1.3,0.8l0,0.5l0.7,0.7l0.9,0.8
				l0.2,1.3l0.6,1.2l-0.7,0.8l0.9,0.6l0.1,1l1-0.3l1.4,0.7l-0.1,0.8l-0.4,0.9l1.4,2.1l0.6-0.2l0.4,0.4l0.4-0.2l0.1,0.9
				c0,0,0.1,0.6,0.3,0.7c0.2,0,1,0,1,0l0,0.3l1.1,0.4c0,0,0.1,0.4,0.1,0.6c0,0.2,0.4,0.2,0.4,0.2l0.7,0.7l0.4,1.1
				c0,0,0.6,0.4,0.7,0.4c0.2,0,0.8,0,0.8,0l0.4-0.9l1.2-0.6l-0.1-1l-0.9-2l-2.9-4.3l-0.5-1.1l-1.9-2.2l0.4-0.8l-0.3-0.4l-0.5,0
				c0,0-0.2-1-0.2-1.1c0-0.1-1-1.6-1-1.6l-0.1-0.8l-0.3,0.1l-0.3,0.3l-0.3-0.2l-0.6-0.1L839.1,262.9z"/>
			<path id="path3403" class="st0" d="M838.4,262.2l1,0.4l0.4,0.7l0.6,0.1l-0.3-0.3l0-1l-0.3-0.3l-1.3,0.1L838.4,262.2z"/>
			<path id="path3409" class="st0" d="M828,254.7l-0.2,0.3l0.7,1.1l0.2,0.3l0.3-0.1l0.9-0.5l0.1-0.7l-0.4,0.1l-0.7-0.2l0-0.3
				L828,254.7z"/>
			<path id="path3415" class="st0" d="M830.5,255l-0.1,0.5l0.5-0.3L830.5,255z"/>
			<path id="path3421" class="st0" d="M855.9,296.8c0,0-0.6,0.5-0.6,0.6c0,0.1,0,0.5,0,0.5l0.5,0l0.2-0.3L855.9,296.8z"/>
			<path id="path3427" class="st0" d="M852.1,300.3l-0.1,0.3l-0.5,0l0,1.2l0.5-0.4l0.2-0.4l0.2-0.1l0-0.4l-0.3,0.1L852.1,300.3z"/>
			<path id="path3433" class="st0" d="M853.1,305.8l-0.4-0.1l-0.2,0.4l-0.3,0l-0.1,0.4l-0.3,0.2l0.1,0.5l0.5,0l0.6-0.7L853.1,305.8z
				"/>
			<path id="path3439" class="st0" d="M854.1,305l-0.4-0.2l-0.2,0.8l0.3,0.3L854.1,305z"/>
			<path id="path3445" class="st0" d="M854.4,303.9l0.3,0.1l-0.4,0.4l-0.1-0.2L854.4,303.9z"/>
			<path id="path3451" class="st0" d="M821,301.1l-0.1,0.1l-0.1,0.4l0.2,0.1l-0.2,0.3l-0.1,0.5l-0.2,0.3l0.3-0.1l0.3-0.1l0.1-0.1
				l-0.2-0.2l0.1-0.4l-0.1-0.3l0-0.5L821,301.1z"/>
			<path id="path3457" class="st0" d="M820.6,301.8v0.2l-0.1,0.3l-0.2-0.1l0-0.3L820.6,301.8z"/>
			<path id="path3463" class="st0" d="M830.2,300.2c0,0-0.3,0.4-0.2,0.4c0.1,0,0.3,0.3,0.3,0.3l0.5,0l0.1,0.6l0.5-0.2l0.3-0.1
				l0.4-0.8l-0.4-0.4l-0.9,0.1l-0.6,0L830.2,300.2z"/>
			<path id="path3469" class="st0" d="M829,299.2l0.6,0l0.7,0.3l-0.1,0.4l-0.7-0.1l-0.1-0.4L829,299.2z"/>
			<path id="path3475" class="st0" d="M814.3,290l0.4,0.2l0.2,0.7l-0.1,0.4l0.3,0.2l0,1.5l-0.6,0.1l-0.2-0.5l0.3-0.4l0-0.9l-0.4,0.7
				l-1,0.5l0.2-0.7l0.5-0.3l0.5-0.5l-0.2-0.6l-0.8-0.2l0.2-0.5L814.3,290z"/>
			<path id="path3481" class="st0" d="M822.4,339.4c8.9,4,12.4,7.3,12.3,9.6c-0.1,1.5-3.7-3.1-5.9-4.7c-2.5-2-5.1-3.8-7.8-4.4
				c-2.6-0.5-21.6,7.5-30.7,0.5C800,339.8,812.4,334.8,822.4,339.4"/>
			<path id="path3487" class="st0" d="M782.7,271.3c0,0.4-1,1.9-0.9,1.8c3.6-5.9,5.4-4.8,9.4-8.4c-0.6,6.7-7.8,10.8-11.3,13.7
				c-1.6-9.9,0.4-18.5,5.2-26C783.8,259.7,783.4,260.2,782.7,271.3"/>
			<path id="path3493" class="st0" d="M784.1,268.4c0.4-6.8,4.7-11.2,9.6-14C792.3,258.9,790.1,264.8,784.1,268.4"/>
			<path id="path3499" class="st0" d="M778.4,284.9c1.3-3.6,4.6-7.8,8.1-9.8c-0.5,7-6.3,11.8-9.3,18c-3.5-8.8-5.1-20.8-0.1-29.4
				C777.2,270.4,779,279.3,778.4,284.9"/>
			<path id="path3505" class="st0" d="M777.7,297.4c1.1-3.8,2.1-7.3,5-10.3c1.9,5.7-1.6,12.1-3.8,17.3c-5.6-6.7-9.3-13.8-7.6-24.4
				C773.3,285.9,774.8,291.9,777.7,297.4"/>
			<path id="path3511" class="st0" d="M780.8,311.6c-0.1-7,0.6-9.7,2.5-13.9c3.1,6.8,1.3,14.6,0.8,21.9c-8.6-6.3-12.6-13-13.6-23.7
				C774.1,301.9,778.6,305.7,780.8,311.6"/>
			<path id="path3517" class="st0" d="M793.4,331c-6.1-1.2-13-3.3-15.9-10l-3.1-8.5c3.4,5.5,7,6.2,12.7,12.3
				c-2-8.1-0.5-9.8-1.1-15.1C791.3,315.2,791.5,323.7,793.4,331"/>
			<path id="path3523" class="st0" d="M805,337c-5.2-0.3-10.5,2.8-15.1,0c-2.7-1.7-5.3-4.7-7.2-7.3c3.5,2.5,10.8,1.4,15.1,4.4
				c-4.1-3.7-2.2-8.8-5.1-14.1c0-0.1,0-0.1,0-0.1C799.6,322.9,799.7,334.8,805,337"/>
			<path id="path3529" class="st0" d="M824.8,339.4c-8.9,4-12.4,7.3-12.3,9.6c0.1,1.5,3.7-3.1,5.9-4.7c2.5-2,5.1-3.8,7.8-4.4
				c2.6-0.5,21.6,7.5,30.7,0.5C847.2,339.8,834.8,334.8,824.8,339.4"/>
			<path id="path3535" class="st0" d="M864.5,271.3c0,0.4,1,1.9,0.9,1.8c-3.6-5.9-5.4-4.8-9.4-8.4c0.6,6.7,7.8,10.8,11.2,13.7
				c1.6-9.9-0.4-18.5-5.2-26C863.4,259.7,863.8,260.2,864.5,271.3"/>
			<path id="path3541" class="st0" d="M863.1,268.4c-0.4-6.8-4.7-11.2-9.6-14C854.9,258.9,857.2,264.8,863.1,268.4"/>
			<path id="path3547" class="st0" d="M868.8,284.9c-1.3-3.6-4.6-7.8-8.1-9.8c0.5,7,6.3,11.8,9.3,18c3.5-8.8,5.2-20.8,0.1-29.4
				C870,270.4,868.2,279.3,868.8,284.9"/>
			<path id="path3553" class="st0" d="M869.5,297.4c-1.1-3.8-2.1-7.3-5-10.3c-1.9,5.7,1.6,12.1,3.8,17.3c5.6-6.7,9.3-13.8,7.7-24.4
				C873.9,285.9,872.4,291.9,869.5,297.4"/>
			<path id="path3559" class="st0" d="M866.4,311.6c0.1-7-0.6-9.7-2.5-13.9c-3,6.8-1.2,14.6-0.8,21.9c8.6-6.3,12.6-13,13.6-23.7
				C873.1,301.9,868.6,305.7,866.4,311.6"/>
			<path id="path3565" class="st0" d="M853.8,331c6.1-1.2,13-3.3,15.9-10l3-8.5c-3.4,5.5-7,6.2-12.7,12.3c2-8.1,0.5-9.8,1.1-15.1
				C855.9,315.2,855.7,323.7,853.8,331"/>
			<path id="path3571" class="st0" d="M842.2,337c5.1-0.3,10.5,2.8,15.1,0c2.7-1.7,5.3-4.7,7.2-7.3c-3.5,2.5-10.8,1.4-15.1,4.4
				c4.1-3.7,2.2-8.8,5.1-14.1c0-0.1,0-0.1,0-0.1C847.6,322.9,847.5,334.8,842.2,337"/>
			<path id="path3577" class="st0" d="M790.8,378.9h-2.2l-8.9-21.9h5.4l4.8,12l5.2-12h4.1l5.2,12l4.8-12h5.4l-8.9,21.9h-2.2
				l-6.3-14.1L790.8,378.9z"/>
			<path id="path3583" class="st0" d="M834.2,357h4.4v21.6h-5.1v-13.5l-5.5,6.8h-0.8l-5.5-6.8v13.5h-5.1V357h4.4l6.5,8L834.2,357z"
				/>
			<path id="path3589" class="st0" d="M853.9,361.2c-3.9,0-6.4,2.6-6.4,6.6c0,4,2.6,6.6,6.4,6.6c3.8,0,6.4-2.6,6.4-6.6
				C860.4,363.8,857.8,361.2,853.9,361.2 M853.9,378.9c-7.5,0-11.7-5.6-11.7-11.1c0-5.2,4-11.1,11.7-11.1c7.7,0,11.6,5.9,11.6,11.1
				C865.6,373.3,861.3,378.9,853.9,378.9"/>
</svg>